<svg id="Layer_1" data-name="Layer 1" xmlns="http://www.w3.org/2000/svg" viewBox="0 0 607.05 381.1"><defs><style>.cls-1{fill:#fff;}.cls-2{fill:#22313f;}.cls-3{fill:#59abe3;}.cls-4{fill:#f59186;}.cls-5,.cls-6{fill:none;stroke-miterlimit:10;}.cls-5{stroke:#22313f;stroke-linecap:round;stroke-width:7px;}.cls-6{stroke:#4d4545;stroke-width:4px;}.cls-7{fill:#6b8672;}.cls-8{fill:#8fb298;}.cls-9{fill:#47594c;}</style></defs><title>astronaut</title><ellipse class="cls-1" cx="108.52" cy="69.1" rx="56.31" ry="54.65"/><path class="cls-2" d="M873.27,709.22c0.75,20.54-25.79,37.24-49.73,37.24s-50.48-16.7-49.73-37.24c0.74-20,26.93-34.32,49.36-34.45C845.92,674.63,872.54,689.08,873.27,709.22Z" transform="translate(-715.12 -634.46)"/><ellipse class="cls-3" cx="860.65" cy="988.11" rx="20.21" ry="32.45" transform="translate(-1157.86 218.47) rotate(-43.02)"/><path class="cls-4" d="M851.55,995.49c9.6,9.73,26.68,14.76,32.62,8.37,5.75-6.19-.17-21.82-8.61-30.78-9.16-9.72-25.7-16.25-32.09-10.32S842,985.79,851.55,995.49Z" transform="translate(-715.12 -634.46)"/><ellipse class="cls-3" cx="793.14" cy="988.03" rx="32.45" ry="20.21" transform="translate(-1185.47 259.31) rotate(-46.98)"/><path class="cls-4" d="M802.24,995.41c-9.6,9.73-26.68,14.76-32.62,8.37-5.75-6.19.17-21.82,8.61-30.78,9.16-9.72,25.7-16.25,32.09-10.32S811.82,985.71,802.24,995.41Z" transform="translate(-715.12 -634.46)"/><ellipse class="cls-1" cx="931.1" cy="779.86" rx="17.91" ry="49.84" transform="translate(-613.86 1032.25) rotate(-86.85)"/><ellipse class="cls-1" cx="745.58" cy="815.61" rx="49.84" ry="17.91" transform="translate(-959.17 672.84) rotate(-73.99)"/><path class="cls-1" d="M863.32,852.23a202.74,202.74,0,0,1-75.13,0,22.72,22.72,0,0,1-22.61-22.83v-55a22.72,22.72,0,0,1,22.61-22.83h75.13a22.72,22.72,0,0,1,22.61,22.83v55A22.72,22.72,0,0,1,863.32,852.23Z" transform="translate(-715.12 -634.46)"/><path class="cls-1" d="M827,824.43l-1,0-1,0c-35.18,0-60,33-59.75,72.85,0.19,35.1,11.24,63.41,29.36,73.25,8.23,3.31,21.77,7.13,25-1.88L820,912.54c0-3.14,2.61-9.08,5.83-9.08l0.2,0,0.2,0c3.22,0,5.83,5.94,5.83,9.08l0.33,56.11c3.23,9,16.76,5.19,25,1.88,18.13-9.85,29.17-38.15,29.36-73.25C887,857.45,862.2,824.43,827,824.43Z" transform="translate(-715.12 -634.46)"/><path class="cls-3" d="M880.79,848.08c2.34,3.18-21.29,38.25-54.73,38.5-34.25.26-58.59-36.14-56.27-39.25,2-2.69,23,20.66,55.78,20.69C857.91,868,878.75,845.31,880.79,848.08Z" transform="translate(-715.12 -634.46)"/><path class="cls-4" d="M882.8,845c2.23,2.85-23.57,23.79-56.74,23.79s-59-21-56.74-23.79c1.86-2.38,22.48,9.18,56.25,9.27C859.84,854.38,880.91,842.6,882.8,845Z" transform="translate(-715.12 -634.46)"/><path class="cls-2" d="M819.94,924.55c1,2.05-4.11,6.25-6.42,7.9-7.87,5.6-16.77,5-20.78,4.75-3.86-.25-13.47-0.89-21-8.07-2.75-2.6-7.11-7.85-5.81-9.69,1.78-2.51,11.32,5.33,26.67,6.74S818.62,921.7,819.94,924.55Z" transform="translate(-715.12 -634.46)"/><path class="cls-2" d="M831.65,924.55c-1,2.05,4.11,6.25,6.42,7.9,7.87,5.6,16.77,5,20.78,4.75,3.86-.25,13.47-0.89,21-8.07,2.75-2.6,7.11-7.85,5.81-9.69-1.78-2.51-11.32,5.33-26.67,6.74S833,921.7,831.65,924.55Z" transform="translate(-715.12 -634.46)"/><path class="cls-1" d="M767.56,751.81a28,28,0,0,0-28,28c0,0.35,0,.69,0,1,6.75,2.47,22.09,9.86,26.13,26.95,0.63,0,1.26.07,1.89,0.07A28,28,0,1,0,767.56,751.81Z" transform="translate(-715.12 -634.46)"/><path class="cls-5" d="M740.14,780.74a46.49,46.49,0,0,1,25.44,26.5" transform="translate(-715.12 -634.46)"/><path class="cls-2" d="M741.06,862.93a27.84,27.84,0,0,0-17.64-4.18c-1.94.09-3-1.91-2.78-4,0.29-2.38,2.5-6.14,5.13-6.54a17.35,17.35,0,0,1,11.14-.32,18,18,0,0,1,7.51,5c1.74,1.68,1.53,6.13.47,8.39C744,863.17,742.33,864.1,741.06,862.93Z" transform="translate(-715.12 -634.46)"/><path class="cls-1" d="M715.23,875.52c1,10.14,8.4,17.74,16.6,17s14.07-9.59,13.1-19.72-8.4-17.74-16.6-17S714.26,865.38,715.23,875.52Z" transform="translate(-715.12 -634.46)"/><path class="cls-1" d="M751.94,874.85c-1.9,2.18-6.67,1.24-10.65-2.11s-5.66-7.83-3.76-10,6.67-1.24,10.65,2.11S753.84,872.66,751.94,874.85Z" transform="translate(-715.12 -634.46)"/><path class="cls-1" d="M902,760.19a28.05,28.05,0,1,0-.62,40,43.24,43.24,0,0,1-4.37-19.4A42.68,42.68,0,0,1,902,760.19Z" transform="translate(-715.12 -634.46)"/><path class="cls-5" d="M902,761.53s-7.33,18.33-1.67,38.67" transform="translate(-715.12 -634.46)"/><path class="cls-2" d="M980.12,774.86A27.84,27.84,0,0,0,980,793c0.52,1.87-1.18,3.39-3.25,3.61-2.38.26-6.54-1.05-7.53-3.52a17.35,17.35,0,0,1-2.82-10.78,18,18,0,0,1,3.21-8.45c1.24-2.07,5.63-2.87,8.06-2.35C979.69,771.93,981,773.36,980.12,774.86Z" transform="translate(-715.12 -634.46)"/><path class="cls-1" d="M995.58,797.19c10.16-.71,17.92-7.79,17.35-15.8s-9.27-13.92-19.42-13.21S975.58,776,976.15,784,985.42,797.91,995.58,797.19Z" transform="translate(-715.12 -634.46)"/><path class="cls-1" d="M995.72,761.41c2.14,1.9,1.09,6.53-2.34,10.33s-8,5.34-10.1,3.43-1.09-6.53,2.34-10.33S993.58,759.5,995.72,761.41Z" transform="translate(-715.12 -634.46)"/><path class="cls-1" d="M807.76,685.34c0,1.09-5.84,2.35-12.74,8.45-8.75,7.74-11,16-12.38,15.92-1.6-.08-1.26-11.31,6.52-18.72S807.76,683.85,807.76,685.34Z" transform="translate(-715.12 -634.46)"/><rect class="cls-2" x="68.71" y="134.49" width="41.92" height="28.84" rx="9.23" ry="9.23"/><circle class="cls-4" cx="78.31" cy="143.69" r="3.65"/><circle class="cls-3" cx="78.31" cy="153.56" r="3.65"/><line class="cls-5" x1="134.16" y1="142.23" x2="146.16" y2="142.23"/><line class="cls-5" x1="134.16" y1="151.56" x2="146.16" y2="151.56"/><rect class="cls-1" x="162.88" y="51.26" width="11.67" height="31.67" rx="2.95" ry="2.95"/><circle class="cls-4" cx="168.49" cy="59.01" r="3.65"/><line class="cls-6" x1="281.71" y1="9.21" x2="281.71" y2="377.02"/><path class="cls-7" d="M1322.18,741.86a194.06,194.06,0,0,0-41.4-9.18,256,256,0,0,0-41.4-1.06V648.82a256,256,0,0,1,41.4,1.06,194.06,194.06,0,0,1,41.4,9.18c-9,10.71-18.09,22.19-27.13,34.33C1304.09,708.85,1313.13,725,1322.18,741.86Z" transform="translate(-715.12 -634.46)"/><path class="cls-8" d="M1262.37,717.4c-87.51-2.8-175,40.44-262.54,10.49V645.08c87.51,30,175-13.28,262.54-10.49V717.4Z" transform="translate(-715.12 -634.46)"/><path class="cls-9" d="M1262.37,717.4c-7.67,4.42-15.34,9.18-23,14.23v-14C1247,717.26,1254.71,717.15,1262.37,717.4Z" transform="translate(-715.12 -634.46)"/><path class="cls-1" d="M1056.28,709.06l0.3-10.45q0-9.18-2-14c-1.33-3.22-3.28-4.9-5.86-5.1q-3.16-.25-6,3.3l-0.79-.56q4.41-5.06,8.35-4.79c3.36,0.24,5.9,2.26,7.59,6.15q2.2,5,2.2,16l0.05,2.18q4.5-9,9-18.18l1.69-.49q0.28,2.7.72,5.44l0.35,2.21q0.67,4.35,1.35,12.23l3.78-7.5c2.91-5.83,4.36-9.52,4.36-11,0-.6-0.66-0.86-2-0.81l-0.63,0,0.23-1.08q3.68-.14,7.37-0.37l-0.21,1.09-1.62.09q-6.45,12.83-12.9,25.39l-1.79.46,0.05-2.16a86.75,86.75,0,0,0-1.79-18.29q-5,10-10,19.84Z" transform="translate(-715.12 -634.46)"/><path class="cls-1" d="M1100.64,702.32l-0.26,1.38c-3.73,3-6.9,4.53-9.53,4.73a4.79,4.79,0,0,1-4.05-1.47,6.2,6.2,0,0,1-1.56-4.43A14.9,14.9,0,0,1,1089,693q3.8-4.62,8.1-5a3,3,0,0,1,2.53.82,3.55,3.55,0,0,1,1,2.64c0,2.25-1.15,4.3-3.45,6.12a14.51,14.51,0,0,1-8.23,3.08l0,0.79c0,3.42,1.25,5.05,3.76,4.86C1094.88,706.1,1097.53,704.79,1100.64,702.32ZM1089,699.54a12,12,0,0,0,6.15-2.51,5.9,5.9,0,0,0,2.21-4.63c0-1.79-.65-2.63-2-2.52s-2.77,1.17-4.08,3.13A14.19,14.19,0,0,0,1089,699.54Z" transform="translate(-715.12 -634.46)"/><path class="cls-1" d="M1115.35,700l-0.32,1.66q-4.15,4.77-7.14,5.11c-1.67.19-2.5-.62-2.5-2.41a16.8,16.8,0,0,1,.37-3l2.41-12.4a21.79,21.79,0,0,1,4.78-10.48,13.6,13.6,0,0,1,8.54-4.68,12.46,12.46,0,0,1,3.17-.08l-2.41,2.86a8.23,8.23,0,0,0-3.52-.44,5.6,5.6,0,0,0-4.21,2.6q-1.41,2.22-2.53,8L1109.22,701a18.53,18.53,0,0,0-.4,2.68,0.84,0.84,0,0,0,1,1c0.79-.09,2.3-1.32,4.56-3.69Z" transform="translate(-715.12 -634.46)"/><path class="cls-1" d="M1132.32,698.18l-0.26,1.41q-5.77,4.79-9.46,5.31a4.61,4.61,0,0,1-4.1-1.15,5.81,5.81,0,0,1-1.55-4.35,15.7,15.7,0,0,1,3.87-9.92q3.87-4.82,8.51-5.52a9.42,9.42,0,0,1,4.06.27l-1.18,4.7-1.09.17,0.05-.27a7,7,0,0,0,.18-1.24c0-1.62-1.1-2.26-3.29-1.93s-3.78,1.66-5.15,4.06a17,17,0,0,0-2.06,8.59c0,3.18,1.18,4.6,3.55,4.26S1129.3,700.78,1132.32,698.18Z" transform="translate(-715.12 -634.46)"/><path class="cls-1" d="M1142,701.91a4.15,4.15,0,0,1-3.84-1.18,5.77,5.77,0,0,1-1.54-4.24,16.14,16.14,0,0,1,3.83-10q3.83-4.92,8.35-5.68a4.47,4.47,0,0,1,4,1.08,5.51,5.51,0,0,1,1.58,4.21,16.22,16.22,0,0,1-3.83,10.13Q1146.75,701.12,1142,701.91Zm2-1.86q2.6-.43,4.58-4.11a16.87,16.87,0,0,0,2-8.11q0-5.82-3.55-5.22-2.51.42-4.53,4.21a17,17,0,0,0-2,8.11Q1140.48,700.63,1144,700Z" transform="translate(-715.12 -634.46)"/><path class="cls-1" d="M1158.79,698.85l1.3-5.64,1.72-9a18.92,18.92,0,0,0,.4-2.71,0.79,0.79,0,0,0-1-.91q-1.72.29-5.24,4.76l0.32-1.67q3.83-4.8,6.91-5.33,2.53-.43,2.53,2.22a19.07,19.07,0,0,1-.4,3l-0.86,4.49,0.25,0a34.88,34.88,0,0,1,4.91-8.11q2.66-3.15,4.91-3.53a2.14,2.14,0,0,1,2,.6,3,3,0,0,1,.8,2.19,12.92,12.92,0,0,1-.3,2.49l-0.84,4.42,0.25,0a31.06,31.06,0,0,1,4.61-7.95q2.65-3.22,4.87-3.57,3.11-.49,3.11,2.82a13.74,13.74,0,0,1-.28,2.47l-1.71,8.85a18.93,18.93,0,0,0-.4,2.7,0.8,0.8,0,0,0,1,.94q1.74-.27,5.24-4.67l-0.32,1.68q-3.84,4.71-6.92,5.2-2.55.41-2.55-2.24a19.09,19.09,0,0,1,.42-3.05l1.72-8.84a9.86,9.86,0,0,0,.25-1.73q0-1.46-1.09-1.28-3.06.49-8.86,12l-1.32,6.58-3.45.79,2.76-14.41a10.57,10.57,0,0,0,.23-1.72q0-1.49-1.05-1.31-1.32.22-3.89,3.75a58.13,58.13,0,0,0-5,8.46l-1.28,6.44Z" transform="translate(-715.12 -634.46)"/><path class="cls-1" d="M1209.86,685.85l-0.26,1.39c-3.73,3.07-6.9,4.8-9.53,5.17a4.57,4.57,0,0,1-4.05-1.16,5.72,5.72,0,0,1-1.56-4.29,16.11,16.11,0,0,1,3.8-9.87q3.8-4.91,8.1-5.48a2.91,2.91,0,0,1,2.53.73,3.46,3.46,0,0,1,1,2.62c0,2.25-1.15,4.32-3.45,6.23a16.16,16.16,0,0,1-8.23,3.55l0,0.79c0,3.42,1.25,4.95,3.76,4.6C1204.1,689.83,1206.74,688.39,1209.86,685.85Zm-11.64-2.2a13.3,13.3,0,0,0,6.15-2.89,6.19,6.19,0,0,0,2.21-4.73q0-2.69-2-2.43-2.11.28-4.08,3.36A15.13,15.13,0,0,0,1198.22,683.65Z" transform="translate(-715.12 -634.46)"/><path class="cls-1" d="M1213.29,688l2.74-2.41,2.06,2.6-2.72,2.24Zm2.74-4.88,1.53-14.15,1.05-5.37,3.59-1-1.18,6-4,14.07Z" transform="translate(-715.12 -634.46)"/></svg>