<svg id="Layer_1" data-name="Layer 1" xmlns="http://www.w3.org/2000/svg" viewBox="0 0 399.69 261.34"><defs><style>.cls-1{fill:none;stroke:#fff;stroke-width:15.37px;}</style></defs><title>email</title><path class="cls-1" d="M-496.54,178.73A15.46,15.46,0,0,0-501.38,190V374.27A15.35,15.35,0,0,0-486,389.74h322.74a15.44,15.44,0,0,0,15.42-15.48V190a15.48,15.48,0,0,0-4.81-11.29l-172,149.54ZM-486,159.15a30.75,30.75,0,0,0-30.8,30.65V374.46A30.66,30.66,0,0,0-486,405.12h322.72a30.75,30.75,0,0,0,30.8-30.65V189.81a30.66,30.66,0,0,0-30.8-30.65H-486Zm161.36,149.12,153.73-133.74H-478.32l153.73,133.74h0Z" transform="translate(524.44 -151.46)"/></svg>