<svg id="Layer_1" data-name="Layer 1" xmlns="http://www.w3.org/2000/svg" viewBox="0 0 479.71 537.15"><defs><style>.cls-1{fill:#fff;}</style></defs><title>github</title><path class="cls-1" d="M151.78,1265.33c0-38.15-13.51-69.27-35.89-93.71,3.58-8.82,15.6-44.31-3.5-92.41,0,0-29.33-9.42-96,35.81A333.12,333.12,0,0,0-71,1103.23,332.4,332.4,0,0,0-158.37,1115c-66.75-45.18-96-35.81-96-35.81-19,48.06-7,83.59-3.45,92.46-22.29,24.45-35.91,55.56-35.91,93.71,0,133.8,81.54,163.77,159.06,172.59-10,8.7-19,24.13-22.17,46.63-19.86,9-70.46,24.38-101.62-29,0,0-18.46-33.55-53.52-36,0,0-34.14-.43-2.41,21.23,0,0,22.87,10.74,38.77,51.07,0,0,20.52,62.28,117.63,41.18,0.17,29.16.49,56.69,0.49,65s-5.36,18.19-19.68,17.3l0,0.13H33c-12.71-.15-17.46-9.35-17.46-17.38,0-11.51.47-49.15,0.47-95.82,0-32.57-11.13-53.79-23.7-64.62C70.11,1429,151.78,1399.48,151.78,1265.33Z" transform="translate(327.93 -1078.36)"/></svg>