<svg id="Layer_1" data-name="Layer 1" xmlns="http://www.w3.org/2000/svg" viewBox="0 0 188.27 187.16"><defs><style>.cls-1{fill:#fff;}</style></defs><title>linkedin</title><g id="in"><polygon class="cls-1" points="3.11 187.16 42.13 187.16 42.13 187.16 42.13 62.15 3.11 62.15 3.11 187.16"/><path class="cls-1" d="M-333.2,136.07c0-16.31,3.12-32.1,23.42-32.1,20,0,20.28,18.65,20.28,33.15v60.8h39V129.34c0-33.65-7.3-59.55-46.81-59.55-19,0-31.71,10.36-36.92,20.2h-0.52V72.9h-37.42v125h39V136.07Z" transform="translate(438.78 -10.76)"/><path class="cls-1" d="M-416.15,55.81a22.58,22.58,0,0,0,22.61-22.54,22.58,22.58,0,0,0-22.61-22.52,22.58,22.58,0,0,0-22.63,22.52A22.58,22.58,0,0,0-416.15,55.81Z" transform="translate(438.78 -10.76)"/></g></svg>