<svg id="Layer_1" data-name="Layer 1" xmlns="http://www.w3.org/2000/svg" viewBox="0 0 295.79 299.45"><defs><style>.cls-1{fill:#cfe8ff;}.cls-2{fill:#f3c5ad;}.cls-3{fill:#68b5f1;}.cls-4{fill:#fff;}.cls-5{fill:#efbba3;}.cls-10,.cls-6,.cls-7,.cls-8,.cls-9{fill:#1a1718;}.cls-7{fill-opacity:0.85;}.cls-8{fill-opacity:0.3;}.cls-9{opacity:0.36;}.cls-10{fill-opacity:0.9;}.cls-11{fill:#070706;opacity:0.05;}</style></defs><title>me</title><path class="cls-1" d="M1052,408.12c0-82.69-66.21-149.72-147.89-149.72s-147.89,67-147.89,149.72a150,150,0,0,0,77.37,131.64,73,73,0,0,1,9.63-15.58l-6.11-2.81,19.56-27.77,14.42,6.63,1.08-4h62.91l1.4,4.57,15.76-7.24,19.56,27.77-6.43,3a82.12,82.12,0,0,1,10.51,14.27l0.2,0.34A150,150,0,0,0,1052,408.12Z" transform="translate(-756.24 -258.4)"/><path class="cls-2" d="M862.13,532.86l-18.88-8.67a73,73,0,0,0-9.63,15.58,146.12,146.12,0,0,0,23.74,10.43Z" transform="translate(-756.24 -258.4)"/><path class="cls-2" d="M965.4,524.33l-19,8.75L951.54,550a146.17,146.17,0,0,0,24.56-11l-0.2-.34A82.12,82.12,0,0,0,965.4,524.33Z" transform="translate(-756.24 -258.4)"/><path class="cls-3" d="M866.23,512.89c10,3.75,12.73,21.7,6.95,41.66a147,147,0,0,0,62.71-.18c-9.13-18.69-9.52-36.88-.31-42.28,7.51-4.41,19.3.9,29.81,12.24l6.43-3-19.56-27.77-15.76,7.24-1.4-4.57H872.2l-1.08,4-14.42-6.63-19.56,27.77,6.11,2.81C850.81,515,859.42,510.34,866.23,512.89Z" transform="translate(-756.24 -258.4)"/><path class="cls-3" d="M857.36,550.19a145.37,145.37,0,0,0,15.83,4.36c5.79-20,3.06-37.91-6.95-41.66-6.81-2.55-15.42,2.1-23,11.29l18.88,8.67Z" transform="translate(-756.24 -258.4)"/><path class="cls-3" d="M935.59,512.09c-9.22,5.4-8.82,23.59.31,42.28A145.39,145.39,0,0,0,951.54,550l-5.18-16.91,19-8.75C954.89,513,943.1,507.68,935.59,512.09Z" transform="translate(-756.24 -258.4)"/><path class="cls-4" d="M904.52,524.2A18.16,18.16,0,1,0,886.35,506,18.17,18.17,0,0,0,904.52,524.2Z" transform="translate(-756.24 -258.4)"/><path class="cls-5" d="M904.21,519a12.93,12.93,0,1,0-13-12.86A12.94,12.94,0,0,0,904.21,519Z" transform="translate(-756.24 -258.4)"/><ellipse class="cls-2" cx="148.89" cy="176.02" rx="79.99" ry="74.78"/><ellipse class="cls-2" cx="148.89" cy="176.02" rx="79.99" ry="74.78"/><path class="cls-6" d="M825.48,417.19c-14.42-27.26-16.22-50.45-6.78-57.52,2-1.49,6.15-3.52,14.67-1.67-0.93-15.07,4.08-28.47,13.5-34a30.7,30.7,0,0,1,9.33-3.33c8.1-1.31,14.31,1.53,19.33,3.33,7.47,2.68,15,3.34,30,4.67,11.1,1,21.25,1.88,34-1,6.11-1.38,14.17-3.2,22.67-9a56.66,56.66,0,0,0,20.33-26c1,4.48,10.62,49.45-19,80.92-4.67,5-19.74,20.39-44.75,23.5-22.23,2.76-39.66-6.34-46.25-10.25l4.25,13.75A25.81,25.81,0,0,1,850,387.34a43.37,43.37,0,0,1-1.73,5.19C843,405.65,832.34,413.28,825.48,417.19Z" transform="translate(-756.24 -258.4)"/><path class="cls-6" d="M981.78,416.4C961,401,948.66,383.2,952.13,371c0.65-2.28,2.37-8.34,8.06-11.32,6.26-3.27,13-.56,14.33,0a19.86,19.86,0,0,1,5.67,3.83c0.94,0.92,5.05,5.1,6.5,15.17C988.9,394,983.32,411.73,981.78,416.4Z" transform="translate(-756.24 -258.4)"/><path class="cls-6" d="M936.29,356.29a74.6,74.6,0,0,0,24.56-3.39,76,76,0,0,0,32.62-20.75c0.1,3.46.45,29-18.58,43.33-9.57,7.2-26.32,13.29-37.5,7a14.57,14.57,0,0,1-6.63-6.93C927.07,366.61,935.9,356.71,936.29,356.29Z" transform="translate(-756.24 -258.4)"/><path class="cls-7" d="M885.44,435c-0.17.39-1.11,0.38-1.51,0.38-2.26,0-3.19-1.72-5.63-3.11a14,14,0,0,0-7.18-1.75,14.42,14.42,0,0,0-7.32,2.7c-2.17,1.59-3,3.34-5.26,3.55a2.22,2.22,0,0,1-1.55-.2c-1.1-1.24,5.12-9.35,13.92-9.76C879.25,426.39,886,433.61,885.44,435Z" transform="translate(-756.24 -258.4)"/><path class="cls-2" d="M826,442.27a12.93,12.93,0,1,0-13-12.86A12.94,12.94,0,0,0,826,442.27Z" transform="translate(-756.24 -258.4)"/><path class="cls-2" d="M982.2,439.25a12.93,12.93,0,1,0-13-12.86A12.94,12.94,0,0,0,982.2,439.25Z" transform="translate(-756.24 -258.4)"/><path id="bezier19" class="cls-8" d="M876,477.32a5.77,5.77,0,0,1,3.84-1.41,6.83,6.83,0,0,1,2.38.34,1.31,1.31,0,0,0,1-.34,0.67,0.67,0,0,0-.41-0.41c-0.83-.46-6.32-1.67-8.22,1.72-1.59,2.83.41,6.94,1.32,6.94a0.49,0.49,0,0,0,.36-0.22C874.67,481.52,874.65,478.76,876,477.32Z" transform="translate(-756.24 -258.4)"/><path id="bezier19-2" data-name="bezier19" class="cls-8" d="M904.52,454.46a5.34,5.34,0,0,1,5.24,4.28,5.33,5.33,0,0,0-5.24-6.41,5.34,5.34,0,0,0-5.34,5.34,5.39,5.39,0,0,0,.11,1.07,5.34,5.34,0,0,1,5.23-4.28h0Z" transform="translate(-756.24 -258.4)"/><path class="cls-9" d="M919.65,486.46c0.07,0.36-10.21,5.17-22.12,2.75-10.12-2.06-16.93-8.43-16.75-8.75s6.93,5.29,17.63,7.25C910.37,489.9,919.59,486.13,919.65,486.46Z" transform="translate(-756.24 -258.4)"/><path class="cls-10" d="M848.75,422.12A43,43,0,0,1,876,408.25a8.56,8.56,0,0,1,3.61,0,3.62,3.62,0,0,1,1,.73,3.92,3.92,0,0,1,.89,3.79c-0.69,1.62-3.66,1.55-6.64,1.83-10.18,1-22.73,6.25-24.18,7.29a1.9,1.9,0,0,1-1.58.47A0.85,0.85,0,0,1,848.75,422.12Z" transform="translate(-756.24 -258.4)"/><path class="cls-7" d="M922.74,435c0.17,0.39,1.11.38,1.51,0.38,2.26,0,3.19-1.72,5.63-3.11a14,14,0,0,1,7.18-1.75,14.42,14.42,0,0,1,7.32,2.7c2.17,1.59,3,3.34,5.26,3.55a2.22,2.22,0,0,0,1.55-.2c1.1-1.24-5.12-9.35-13.92-9.76C928.93,426.43,922.15,433.65,922.74,435Z" transform="translate(-756.24 -258.4)"/><path class="cls-10" d="M959.43,422.16a43,43,0,0,0-27.28-13.87,8.56,8.56,0,0,0-3.61,0,3.62,3.62,0,0,0-1,.73,3.92,3.92,0,0,0-.89,3.79c0.69,1.62,3.66,1.55,6.64,1.83,10.18,1,22.73,6.25,24.18,7.29a1.9,1.9,0,0,0,1.58.47A0.85,0.85,0,0,0,959.43,422.16Z" transform="translate(-756.24 -258.4)"/><circle class="cls-11" cx="196.13" cy="206.79" r="16.81"/><circle class="cls-11" cx="100.63" cy="206.79" r="16.81"/></svg>