<svg id="Layer_1" data-name="Layer 1" xmlns="http://www.w3.org/2000/svg" viewBox="0 0 821.49 261.03">
  <defs>
    <style>
      .cls-1 {
        fill: #f9e09e;
      }

      .cls-2 {
        fill: #d8c28c;
      }

      .cls-3 {
        fill: #c1ae81;
      }
    </style>
  </defs>
  <title>moon</title>
  <g id="moon">
    <path class="cls-1" d="M1400.93,1440.5a85.83,85.83,0,1,1-143-85.4c-54.51-19.83-115.57-30.94-180.06-30.94-205.26,0-375.91,112.53-410.74,260.78h821.49C1475.86,1530.76,1445,1481.38,1400.93,1440.5Z" transform="translate(-667.1 -1324.15)"/>
    <path class="cls-2" d="M1318.8,1501.39a85.85,85.85,0,0,0,82.14-60.9c-38.64-35.86-87.42-65.17-143-85.4A85.82,85.82,0,0,0,1318.8,1501.39Z" transform="translate(-667.1 -1324.15)"/>
    <circle class="cls-2" cx="199.27" cy="110.84" r="45.19"/>
    <circle class="cls-2" cx="249.46" cy="220.58" r="27.17"/>
    <circle class="cls-2" cx="471.52" cy="70.77" r="28.83"/>
    <path class="cls-2" d="M1108,1553.12a70.94,70.94,0,1,0-134.21,32.06h126.54A70.61,70.61,0,0,0,1108,1553.12Z" transform="translate(-667.1 -1324.15)"/>
    <circle class="cls-2" cx="739.61" cy="156.03" r="13.98"/>
    <path class="cls-3" d="M871.71,1395a45,45,0,0,1,28.22,9.91,45.18,45.18,0,1,0-61.77,65.54A45.18,45.18,0,0,1,871.71,1395Z" transform="translate(-667.1 -1324.15)"/>
    <path class="cls-3" d="M920.49,1522.8a27.08,27.08,0,0,1,19.34,8.09,27.17,27.17,0,1,0-42.72,32.93A27.17,27.17,0,0,1,920.49,1522.8Z" transform="translate(-667.1 -1324.15)"/>
    <path class="cls-3" d="M1043,1486.38a70.58,70.58,0,0,1,37.55,10.76,70.92,70.92,0,0,0-106.82,88h4A70.92,70.92,0,0,1,1043,1486.38Z" transform="translate(-667.1 -1324.15)"/>
    <path class="cls-3" d="M1113.3,1397.69a28.84,28.84,0,0,1,45.28-23.6,28.77,28.77,0,1,0-36.4,44.33A28.6,28.6,0,0,1,1113.3,1397.69Z" transform="translate(-667.1 -1324.15)"/>
    <path class="cls-3" d="M1258.12,1355.09a86.7,86.7,0,0,0-24.93,61c0,2.27.11,4.5,0.28,6.72a86.55,86.55,0,0,1,24.68-54.24s0,0,0,0l8.86-10.11Q1262.6,1356.75,1258.12,1355.09Z" transform="translate(-667.1 -1324.15)"/>
    <path class="cls-3" d="M1408.84,1468.38a13.91,13.91,0,0,1,8.82,3.14,14,14,0,1,0-19.77,19.5A14,14,0,0,1,1408.84,1468.38Z" transform="translate(-667.1 -1324.15)"/>
  </g>
</svg>
