<svg id="Layer_1" data-name="Layer 1" xmlns="http://www.w3.org/2000/svg" viewBox="0 0 1920 1080"><defs><style>.cls-1{fill:#002846;}.cls-2{fill:#ef4836;}.cls-3{fill:#59abe3;}.cls-4{fill:#f5d76e;}</style></defs><title>space</title><rect class="cls-1" width="1920" height="1080"/><circle class="cls-2" cx="618.11" cy="553.5" r="6.09"/><path class="cls-3" d="M243.83,642.83a11.46,11.46,0,0,0,11.52-11.62,11.53,11.53,0,0,0,3,8.31A11.38,11.38,0,0,0,267,643a11.23,11.23,0,0,0-11.77,11.88,12,12,0,0,0-3.09-8.25A11.86,11.86,0,0,0,243.83,642.83Z" transform="translate(0)"/><circle class="cls-4" cx="535.61" cy="141.3" r="6.09"/><circle class="cls-2" cx="855.5" cy="238" r="6.09"/><circle class="cls-2" cx="1396.98" cy="129.11" r="6.09"/><circle class="cls-3" cx="287.92" cy="244.09" r="6.09"/><circle class="cls-3" cx="817.41" cy="390.59" r="6.09"/><circle class="cls-4" cx="103.79" cy="384.5" r="6.09"/><path class="cls-4" d="M453.63,452.17a11.46,11.46,0,0,0,11.52-11.62,11.53,11.53,0,0,0,3,8.31,11.38,11.38,0,0,0,8.61,3.44A11.23,11.23,0,0,0,465,464.18a12,12,0,0,0-3.09-8.25A11.86,11.86,0,0,0,453.63,452.17Z" transform="translate(0)"/><path class="cls-4" d="M606.52,754.89A11.46,11.46,0,0,0,618,743.27a11.53,11.53,0,0,0,3,8.31,11.38,11.38,0,0,0,8.61,3.44,11.23,11.23,0,0,0-11.77,11.88,12,12,0,0,0-3.09-8.25A11.86,11.86,0,0,0,606.52,754.89Z" transform="translate(0)"/><path class="cls-2" d="M159.35,96.8a11.46,11.46,0,0,0,11.52-11.62,11.53,11.53,0,0,0,3,8.31,11.38,11.38,0,0,0,8.61,3.44,11.23,11.23,0,0,0-11.77,11.88,12,12,0,0,0-3.09-8.25A11.86,11.86,0,0,0,159.35,96.8Z" transform="translate(0)"/><path class="cls-2" d="M976.27,547.21a11.46,11.46,0,0,0,11.52-11.62,11.53,11.53,0,0,0,3,8.31,11.38,11.38,0,0,0,8.61,3.44,11.23,11.23,0,0,0-11.77,11.88,12,12,0,0,0-3.09-8.25A11.86,11.86,0,0,0,976.27,547.21Z" transform="translate(0)"/><path class="cls-3" d="M1799,85a11.46,11.46,0,0,0,11.52-11.62,11.53,11.53,0,0,0,3,8.31,11.38,11.38,0,0,0,8.61,3.44A11.23,11.23,0,0,0,1810.38,97a12,12,0,0,0-3.09-8.25A11.86,11.86,0,0,0,1799,85Z" transform="translate(0)"/><path class="cls-4" d="M936.83,85a11.46,11.46,0,0,0,11.52-11.62,11.53,11.53,0,0,0,3,8.31A11.38,11.38,0,0,0,960,85.11,11.23,11.23,0,0,0,948.23,97a12,12,0,0,0-3.09-8.25A11.86,11.86,0,0,0,936.83,85Z" transform="translate(0)"/><path class="cls-3" d="M1397,274.9a11.46,11.46,0,0,0,11.52-11.62,11.53,11.53,0,0,0,3,8.31,11.38,11.38,0,0,0,8.61,3.44,11.23,11.23,0,0,0-11.77,11.88,12,12,0,0,0-3.09-8.25A11.86,11.86,0,0,0,1397,274.9Z" transform="translate(0)"/><path class="cls-4" d="M1702.62,344a11.46,11.46,0,0,0,11.52-11.62,11.53,11.53,0,0,0,3,8.31,11.38,11.38,0,0,0,8.61,3.44A11.23,11.23,0,0,0,1714,356a12,12,0,0,0-3.09-8.25A11.86,11.86,0,0,0,1702.62,344Z" transform="translate(0)"/><circle class="cls-4" cx="1509.88" cy="822.8" r="6.09"/><path class="cls-2" d="M1516,553.31a11.46,11.46,0,0,0,11.52-11.62,11.53,11.53,0,0,0,3,8.31,11.38,11.38,0,0,0,8.61,3.44,11.23,11.23,0,0,0-11.77,11.88,12,12,0,0,0-3.09-8.25A11.86,11.86,0,0,0,1516,553.31Z" transform="translate(0)"/><path class="cls-3" d="M1775.82,620.34a11.46,11.46,0,0,0,11.52-11.62,11.53,11.53,0,0,0,3,8.31,11.38,11.38,0,0,0,8.61,3.44,11.23,11.23,0,0,0-11.77,11.88,12,12,0,0,0-3.09-8.25A11.86,11.86,0,0,0,1775.82,620.34Z" transform="translate(0)"/><path class="cls-4" d="M86.12,946.91a11.46,11.46,0,0,0,11.52-11.62,11.53,11.53,0,0,0,3,8.31,11.38,11.38,0,0,0,8.61,3.44,11.23,11.23,0,0,0-11.77,11.88,12,12,0,0,0-3.09-8.25A11.86,11.86,0,0,0,86.12,946.91Z" transform="translate(0)"/><circle class="cls-2" cx="424.62" cy="909.45" r="6.09"/><circle class="cls-3" cx="1226.96" cy="631.21" r="6.09"/><circle class="cls-4" cx="1177.03" cy="425.6" r="6.09"/><circle class="cls-2" cx="1720.29" cy="986.72" r="6.09"/><path class="cls-3" d="M1268.94,897.45a11.46,11.46,0,0,0,11.52-11.62,11.53,11.53,0,0,0,3,8.31,11.38,11.38,0,0,0,8.61,3.44,11.23,11.23,0,0,0-11.77,11.88,12,12,0,0,0-3.09-8.25A11.86,11.86,0,0,0,1268.94,897.45Z" transform="translate(0)"/><circle class="cls-4" cx="1015.91" cy="1023.48" r="6.09"/><circle class="cls-2" cx="849.4" cy="810.62" r="6.09"/><path class="cls-3" d="M707,934.87a11.46,11.46,0,0,0,11.52-11.62,11.53,11.53,0,0,0,3,8.31,11.38,11.38,0,0,0,8.61,3.44,11.23,11.23,0,0,0-11.77,11.88,12,12,0,0,0-3.09-8.25A11.86,11.86,0,0,0,707,934.87Z" transform="translate(0)"/></svg>